<?xml version="1.0" encoding="utf-8"?>
<!-- Generator: Adobe Illustrator 23.0.1, SVG Export Plug-In . SVG Version: 6.00 Build 0)  -->
<svg version="1.1" id="Layer_1" xmlns="http://www.w3.org/2000/svg" xmlns:xlink="http://www.w3.org/1999/xlink" x="0px" y="0px"
	 viewBox="0 0 1581.8 1104.3" style="enable-background:new 0 0 1581.8 1104.3;" xml:space="preserve">
<style type="text/css">
	.st0{fill:#275589;}
	.st1{fill:#FFF200;}
</style>
<path id="XMLID_1_" class="st0" d="M1581.8,259.8"/>
<path id="XMLID_4_" class="st1" d="M1544.4,434.3"/>
<path id="XMLID_2_" class="st0" d="M829.6,1104.3"/>
<path id="XMLID_6_" class="st0" d="M831.4,1100.6"/>
<path id="XMLID_11_" class="st0" d="M1538.7,242.2c-1.3-0.1-2.3-0.1-2.8-0.1l-0.1-0.1h-251.1l1.8-8.9l37.9-183
	c0,0,6.7-50.2-40.9-50.2H545.8c-34.5,0-40.9,33.3-40.9,33.3l-37.9,183l-5.1,24.8H174.2c0,0-33.5-1.2-40.8,33l-23.7,111l-10.8,50.4
	l-3,14.2l-94,444c0,0-15.3,50.4,40.8,50.4h132.5c0,0,33,3.3,40.8-33l40.4-189h183.9c38.5-3.8,60.2,6.5,71.7,14.3
	c78.7,53.3,46.4,235.6,32.5,313.8c-0.2,1.4,0.2,2.9,0.3,4.4c-0.1,0.5-0.2,0.8-0.3,1.3c-6.9,46.5,40.8,44.6,40.8,44.6h212
	c0,0,32.8,5.4,40.8-33.2l24.8-119h28.2h358.8c33.4,0,60.8-1.8,83.6-5.4c27-4.3,50.1-13.3,68.7-26.9c19-13.9,34.1-32.7,45-55.9
	c9.2-19.7,17.2-44.5,24.4-75.6l22.7-103.9c2.9-15.2,4.2-29.7,4.2-44.5c0-60.8-33.5-97.9-33.5-97.9c-41.6-46.3-107.7-39.8-114.7-39
	c9.4-6.5,19.6-12.9,30.6-18.9c48-26.2,95.3-36.8,135.1-40.7v-0.1c17.6-1.7,31.3-14.1,35.6-30.8c0.3-1.4,0.6-2.8,0.9-4.2l23.7-112.1
	c0.7-4,0.7-7.3,0.5-9.8C1575.4,262.4,1556.8,243.5,1538.7,242.2z M568,656.2c-13.3,9.7-30.2,16.2-50.6,19.4
	c-20.5,3.2-46.2,4.8-77,4.8H222.7l-47.4,222H42.7l94.8-444h132.6l-23.7,109.9h168.1c15.1,0,27.5-0.5,37.2-1.6s17.6-3.8,23.7-8.1
	c6.1-4.3,10.8-10.8,14-19.4c3.2-8.6,6.6-20.5,10.2-35.6l9.7-45.3c1.4-7.9,2.7-14.7,3.8-20.5c1.1-5.7,1.6-10.4,1.6-14
	c0-12.2-4.2-20.3-12.4-24.3c-8.3-3.9-25-5.9-50.1-5.9H150.5l23.7-111h350.2c49.6,0,84.2,4.8,104,14.5c19.7,9.7,29.6,28.9,29.6,57.6
	c0,16.5-2.5,36.3-7.5,59.3L621.4,549c-6.5,28-13.7,50.5-21.6,67.3C591.9,633.2,581.3,646.5,568,656.2z M797.9,1056.7
	c-6.5,0.5-13.6,1.2-21.1,2.2H585.4l174.1-834.1H507.9l37.9-183h737.8l-37.9,183H971.6L797.9,1056.7z M1512.1,395.9h-308.2
	c-15.1,0-27.5,0.5-37.2,1.6c-9.7,1.1-17.6,3.8-23.7,8.1c-6.1,4.3-11,10.8-14.5,19.4c-3.6,8.6-6.8,20.5-9.7,35.6l-3.2,14
	c-3.6,18-5.4,29.8-5.4,35.6c0,12.2,4.3,20.1,12.9,23.7c8.6,3.6,25.5,5.4,50.6,5.4h180c69,0,103.4,32.3,103.4,97
	c0,12.2-1.1,24.1-3.2,35.6l-22.6,103.4c-6.5,28-13.6,50.5-21.6,67.3c-7.9,16.9-18.5,30.2-31.8,39.9c-13.3,9.7-30.2,16.2-50.6,19.4
	s-46.2,4.8-77.1,4.8H891.4l23.7-112.1h309.3c15.1,0,27.5-0.5,37.2-1.6c9.7-1.1,17.6-3.8,23.7-8.1c6.1-4.3,10.8-10.8,14-19.4
	c3.2-8.6,6.6-20.5,10.2-35.5l3.2-14c3.6-17.9,5.4-30.2,5.4-36.6c0-18.7-12.2-28-36.6-28h-189.7c-38.8,0-69.3-8.3-91.6-24.8
	c-22.3-16.5-33.4-38.8-33.4-66.8c0-3.6,0.2-7,0.5-10.2s0.9-6.6,1.6-10.2l26.9-123.9c6.5-28,13.8-50.6,22.1-67.9
	c8.3-17.2,19-30.5,32.3-39.9c13.3-9.3,30.2-15.6,50.6-18.9c20.5-3.2,45.8-4.8,76-4.8h358.9L1512.1,395.9z"/>
</svg>
